<?xml version="1.0" encoding="UTF-8"?>
<svg version="1.1" xmlns="http://www.w3.org/2000/svg" width="967" height="166">
<path d="M0 0 C2.05853229 -0.00960809 4.11602207 -0.04062238 6.17431641 -0.07226562 C25.04451822 -0.22400697 43.9371385 5.38272702 57.90478516 18.61523438 C63.93660513 25.09546303 67.66831117 31.77110577 70.09228516 40.24023438 C70.43259766 41.16964844 70.77291016 42.0990625 71.12353516 43.05664062 C72.19671007 46.58340495 72.5765067 49.81623801 72.84228516 53.49023438 C72.94025391 54.71226563 73.03822266 55.93429688 73.13916016 57.19335938 C73.09228516 60.24023438 73.09228516 60.24023438 71.09228516 62.24023438 C68.49438477 62.4831543 68.49438477 62.4831543 65.24462891 62.47070312 C64.08253906 62.46876953 62.92044922 62.46683594 61.72314453 62.46484375 C60.50433594 62.45259766 59.28552734 62.44035156 58.02978516 62.42773438 C56.19577148 62.42676758 56.19577148 62.42676758 54.32470703 62.42578125 C45.23239572 62.38034494 45.23239572 62.38034494 44.09228516 61.24023438 C43.78017048 59.46877273 43.47281145 57.69630218 43.19311523 55.91943359 C41.71439543 46.73428884 39.91716608 39.06183573 32.40478516 32.92773438 C20.08850207 24.53026863 5.16211368 23.59594406 -9.24755859 25.73632812 C-11.9002351 26.40996333 -14.36734661 27.22490921 -16.90771484 28.24023438 C-17.76623047 28.56894531 -18.62474609 28.89765625 -19.50927734 29.23632812 C-27.98565201 32.93673942 -34.28284935 39.50463534 -38.10302734 47.93945312 C-45.27071817 68.43348174 -46.32090624 95.51842623 -37.32568359 115.51367188 C-32.32689784 125.12566212 -25.23614469 131.73621891 -14.90771484 135.24023438 C-8.77525089 136.93951864 -2.94735833 137.59585291 3.40478516 137.55273438 C4.23002686 137.54999512 5.05526855 137.54725586 5.90551758 137.54443359 C12.61923918 137.43031935 18.70894409 136.36801473 25.09228516 134.24023438 C26.32978516 133.84835938 27.56728516 133.45648438 28.84228516 133.05273438 C29.58478516 132.78460938 30.32728516 132.51648438 31.09228516 132.24023438 C31.09228516 131.58023438 31.09228516 130.92023438 31.09228516 130.24023438 C31.95853516 129.78648437 32.82478516 129.33273438 33.71728516 128.86523438 C39.67287149 125.05478815 42.35823126 117.43574264 43.87744141 110.82226562 C44.21416903 108.73455436 44.51482245 106.64048968 44.76806641 104.54101562 C45.09228516 102.24023438 45.09228516 102.24023438 46.09228516 101.24023438 C48.00686797 101.14051652 49.92510833 101.10942849 51.84228516 101.10742188 C53.00759766 101.10613281 54.17291016 101.10484375 55.37353516 101.10351562 C56.60072266 101.10738281 57.82791016 101.11125 59.09228516 101.11523438 C60.31947266 101.11136719 61.54666016 101.1075 62.81103516 101.10351562 C63.97634766 101.10480469 65.14166016 101.10609375 66.34228516 101.10742188 C67.41994141 101.1085498 68.49759766 101.10967773 69.60791016 101.11083984 C72.09228516 101.24023438 72.09228516 101.24023438 73.09228516 102.24023438 C73.21225902 118.84461776 68.27515455 132.69996282 57.02978516 144.92773438 C42.46917821 158.69861349 25.18239125 161.93979756 5.86083984 161.76171875 C3.09595062 161.74026282 0.33365873 161.76162725 -2.43115234 161.78710938 C-22.2385129 161.81926328 -38.84732087 156.95723353 -53.47021484 142.90820312 C-61.54669344 134.06808313 -69.51024293 120.58082441 -70.03271484 108.30273438 C-69.99146484 107.62210937 -69.95021484 106.94148438 -69.90771484 106.24023438 C-70.56771484 106.24023438 -71.22771484 106.24023438 -71.90771484 106.24023438 C-71.98414363 99.42675001 -72.03647308 92.61337732 -72.07250977 85.79956055 C-72.08754213 83.48441435 -72.10797354 81.16929638 -72.1340332 78.85424805 C-72.1706608 75.51539114 -72.18749725 72.17691268 -72.20068359 68.83789062 C-72.21616745 67.81252701 -72.23165131 66.78716339 -72.24760437 65.73072815 C-72.24908624 59.31951963 -71.29184712 54.17993393 -68.90771484 48.24023438 C-68.34310547 46.58894531 -68.34310547 46.58894531 -67.76708984 44.90429688 C-61.53572426 27.8338658 -51.25095308 15.14752689 -34.80908203 7.09667969 C-23.38124261 1.94916291 -12.44985451 0.03501248 0 0 Z " fill="#03045C" transform="translate(71.90771484375,4.759765625)"/>
<path d="M0 0 C8.91 0 17.82 0 27 0 C27.02311699 21.23528787 27.04097819 42.47057272 27.05181217 63.70587063 C27.05697555 73.56506719 27.06401905 83.4242558 27.07543945 93.28344727 C27.08538501 101.87347817 27.09185312 110.46350331 27.09408849 119.05353981 C27.09539582 123.60481195 27.09848305 128.15606764 27.10573006 132.70733452 C27.11248825 136.98604819 27.11461737 141.26473853 27.11310768 145.54345703 C27.1133841 147.11850677 27.11539041 148.69355723 27.11920547 150.26860237 C27.1241396 152.40964252 27.12299935 154.55059315 27.12025452 156.69163513 C27.12117631 157.89273139 27.1220981 159.09382765 27.12304783 160.33132076 C27 163 27 163 26 164 C24.45044441 164.09899523 22.89646327 164.13079524 21.34375 164.1328125 C19.93416016 164.13474609 19.93416016 164.13474609 18.49609375 164.13671875 C17.50738281 164.13285156 16.51867187 164.12898437 15.5 164.125 C14.51128906 164.12886719 13.52257812 164.13273438 12.50390625 164.13671875 C11.56417969 164.13542969 10.62445312 164.13414062 9.65625 164.1328125 C8.78806641 164.13168457 7.91988281 164.13055664 7.02539062 164.12939453 C5 164 5 164 4 163 C3.76572222 160.98405418 3.58663876 158.961526 3.4375 156.9375 C3.35371094 155.83277344 3.26992188 154.72804687 3.18359375 153.58984375 C3.12300781 152.73519531 3.06242188 151.88054687 3 151 C2.52691406 151.43570313 2.05382812 151.87140625 1.56640625 152.3203125 C-10.05625126 162.78750114 -18.53529173 166.35926956 -34.25 166.375 C-35.52230469 166.39949219 -36.79460938 166.42398438 -38.10546875 166.44921875 C-48.51912687 166.48145918 -56.66300689 164.95422761 -64.375 157.5625 C-65.16648437 156.82128906 -65.95796875 156.08007812 -66.7734375 155.31640625 C-78.20659823 143.42190745 -82.48354858 127.21208374 -83 111 C-83.05994141 109.29457031 -83.05994141 109.29457031 -83.12109375 107.5546875 C-83.49619646 86.4165466 -80.47005584 67.03487997 -65.5 51.125 C-56.96085685 43.04127782 -46.73102075 40.43500829 -35.1875 40.5625 C-33.73500854 40.57494751 -33.73500854 40.57494751 -32.25317383 40.58764648 C-19.22761317 40.89478608 -10.22048238 44.77951762 -1 54 C-0.67 36.18 -0.34 18.36 0 0 Z M-48.4375 71.1875 C-55.17063393 80.03187084 -55.23417178 91.28476041 -55.29516602 101.90771484 C-55.30660421 103.28835363 -55.32692461 104.66895111 -55.35668945 106.04931641 C-55.58979193 116.89183701 -54.94139875 127.96119512 -48.375 137.0625 C-42.43378756 142.98896998 -35.46752356 144.24410023 -27.3125 144.4375 C-21.68752937 144.26224966 -17.77245116 143.98278197 -13 141 C-12.11441406 140.44892578 -12.11441406 140.44892578 -11.2109375 139.88671875 C-4.20253129 134.83171938 -1.39328846 126.26824463 0 118 C0.24553672 113.64841961 0.23114512 109.29533318 0.25 104.9375 C0.270625 103.77283203 0.29125 102.60816406 0.3125 101.40820312 C0.36338214 89.99152293 -1.00201166 78.72994709 -9 70 C-20.01284346 61.30235658 -38.28435499 60.53907962 -48.4375 71.1875 Z " fill="#03035C" transform="translate(557,0)"/>
<path d="M0 0 C8.58 0 17.16 0 26 0 C26.06058594 3.81433594 26.12117187 7.62867188 26.18359375 11.55859375 C26.24532622 15.23545429 26.30873748 18.91228228 26.37231445 22.58911133 C26.41574066 25.15288421 26.45740985 27.71668746 26.49731445 30.28051758 C26.55483147 33.95663628 26.61857863 37.63260099 26.68359375 41.30859375 C26.70030624 42.46274277 26.71701874 43.61689178 26.73423767 44.80601501 C26.75418289 45.86703934 26.77412811 46.92806366 26.79467773 48.02124023 C26.81799416 49.43021828 26.81799416 49.43021828 26.84178162 50.86766052 C26.76545159 52.98306665 26.76545159 52.98306665 28 54 C28.66 53.278125 29.32 52.55625 30 51.8125 C37.71128308 44.16619964 47.20074158 40.68197077 57.95410156 40.48022461 C72.17433287 40.58080431 82.30612373 42.27307791 92.85546875 52.703125 C93.56316406 53.46109375 94.27085937 54.2190625 95 55 C95.57363281 55.59296875 96.14726563 56.1859375 96.73828125 56.796875 C105.10843676 66.57287058 108.11543827 80.86289544 108.23828125 93.3359375 C108.246353 94.13295074 108.25442474 94.92996399 108.26274109 95.75112915 C108.27652507 97.43709174 108.28727245 99.12308157 108.29516602 100.80908203 C108.30660164 102.50187596 108.32691731 104.1946363 108.35668945 105.88720703 C108.68179234 124.42352018 106.10977715 142.01869673 92.9921875 156.21484375 C83.44624116 164.76876037 73.97914789 166.50276969 61.5625 166.5625 C60.88492645 166.56645782 60.20735291 166.57041565 59.50924683 166.57449341 C46.34113127 166.5742978 37.5148441 164.43219524 27.6875 155.1875 C26.12043526 153.46254461 25.04286329 152.08572659 24 150 C23.34 154.62 22.68 159.24 22 164 C15.07 164.33 8.14 164.66 1 165 C-0.42337486 162.15325029 -0.12269995 159.75532955 -0.12025452 156.57138062 C-0.12110894 155.90405273 -0.12196337 155.23672485 -0.12284368 154.5491749 C-0.12449684 152.30277589 -0.11897979 150.05645079 -0.11352539 147.81005859 C-0.11324346 146.2038727 -0.11340137 144.59768667 -0.1139679 142.99150085 C-0.11425563 138.62191272 -0.10836274 134.25235185 -0.10139394 129.88277006 C-0.09515644 125.31968542 -0.09455629 120.75660021 -0.09336853 116.19351196 C-0.09025639 107.5485349 -0.08204456 98.90357043 -0.07201904 90.25859892 C-0.06085429 80.41835454 -0.05534654 70.57810957 -0.05032361 60.73786044 C-0.03986186 40.49189973 -0.02206401 20.2459511 0 0 Z M33 72 C23.91128141 84.97067975 24.5303315 104.19553665 26.46875 119.2109375 C27.94429418 127.30886449 30.43990979 134.35368509 37.02734375 139.62109375 C45.26418064 145.03562526 54.94509021 145.19407635 64.515625 143.57421875 C69.81938087 141.87242307 73.7767207 138.49132065 77 134 C83.16198038 121.80674792 82.26530696 108.28407546 82 95 C81.98324219 93.9378125 81.96648437 92.875625 81.94921875 91.78125 C81.50505854 82.94880701 78.66595771 75.07202927 72.125 68.9375 C60.76446142 60.14360162 42.90901205 61.86578313 33 72 Z " fill="#02035C" transform="translate(859,0)"/>
<path d="M0 0 C7.95338045 6.42335405 12.34458361 13.90715704 14 24 C14.33673404 29.43526784 14.3731806 34.86889135 14.4140625 40.3125 C14.43279674 41.89291367 14.45237179 43.47331758 14.4727478 45.05371094 C14.52383701 49.18982151 14.56358611 53.32596444 14.60089111 57.46221924 C14.64107722 61.69234058 14.69210254 65.92233008 14.7421875 70.15234375 C14.83867154 78.43480539 14.92316334 86.71733289 15 95 C15.91523437 95.02578125 16.83046875 95.0515625 17.7734375 95.078125 C19.55621094 95.16320312 19.55621094 95.16320312 21.375 95.25 C22.55835938 95.29640625 23.74171875 95.3428125 24.9609375 95.390625 C28 96 28 96 29.40234375 97.83764648 C30.27401297 100.99139416 30.16461314 103.80110218 30 107.0625 C29.95875 108.29097656 29.9175 109.51945312 29.875 110.78515625 C29 114 29 114 26.59375 115.90625 C21.81800463 117.35973772 17.46547715 117.47558943 12.5 117.4375 C11.57574219 117.45748047 10.65148437 117.47746094 9.69921875 117.49804688 C3.95012927 117.49393451 0.52670751 116.88512692 -4 113 C-6.1875 110.5 -6.1875 110.5 -8 108 C-8.99845209 106.66550714 -9.99819485 105.33197756 -11 104 C-12.051875 104.79664063 -12.051875 104.79664063 -13.125 105.609375 C-24.61289953 114.16286541 -32.65853098 117.24142431 -46.88720703 117.4050293 C-48.28166699 117.42646022 -49.67599801 117.4603841 -51.06982422 117.50756836 C-62.87145158 117.90226692 -71.98694923 115.66115652 -81 107.6875 C-87.58360065 100.44553929 -89.34788909 91.54946281 -89.20703125 82.03515625 C-88.47018818 71.23275876 -85.0903651 63.63970383 -77.15234375 56.2890625 C-59.62980449 42.11271657 -34.52680264 41.51504074 -13 42 C-13.0603174 39.12285987 -13.14745596 36.25069146 -13.25 33.375 C-13.26417969 32.56675781 -13.27835938 31.75851563 -13.29296875 30.92578125 C-13.51279912 25.51795404 -14.41324849 22.28951613 -18 18 C-24.9377305 13.09282477 -33.73477862 13.65473197 -41.8125 14.6875 C-46.86748296 15.57602432 -50.16910501 16.58325582 -54 20 C-55.9535973 22.93039595 -56.25328562 23.7626951 -56.5 27.0625 C-57 31 -57 31 -59 33 C-61.32250977 33.24291992 -61.32250977 33.24291992 -64.19140625 33.23046875 C-65.21814453 33.22853516 -66.24488281 33.22660156 -67.30273438 33.22460938 C-68.37845703 33.21236328 -69.45417969 33.20011719 -70.5625 33.1875 C-71.64208984 33.18685547 -72.72167969 33.18621094 -73.83398438 33.18554688 C-81.85985402 33.14014598 -81.85985402 33.14014598 -83 32 C-83.91266854 21.03042618 -82.06381745 13.59293411 -75.06640625 5.10546875 C-57.81571882 -12.47131863 -19.85336495 -13.09982713 0 0 Z M-57 70 C-60.64713712 74.09190994 -61.8084173 77.539893 -62 83 C-61.0891813 87.88530032 -60.02426532 90.98180101 -56 94 C-48.48414695 97.06611384 -39.03831993 97.28564026 -31.16796875 95.27734375 C-28.95211449 94.34494852 -27.01407575 93.3080664 -25 92 C-23.948125 91.319375 -22.89625 90.63875 -21.8125 89.9375 C-15.61327926 84.29239955 -12.43826258 76.41090733 -11.91015625 68.19140625 C-12.00045913 65.98880133 -12.43655688 64.12327626 -13 62 C-36.06056544 61.28777527 -36.06056544 61.28777527 -57 70 Z " fill="#02035C" transform="translate(816,49)"/>
<path d="M0 0 C1.32165848 1.00333996 2.61587267 2.04422686 3.875 3.125 C4.80505859 3.91003906 4.80505859 3.91003906 5.75390625 4.7109375 C17.62872393 15.63679567 22.12688476 31.69967899 23.00048828 47.37695312 C23.78038423 66.7998894 22.22792563 87.51954903 8.625 102.625 C-1.03916568 112.74389201 -11.85868895 117.24846002 -25.703125 117.59375 C-28.10866395 117.62370285 -30.5127415 117.63270046 -32.91845703 117.62597656 C-35.35700803 117.62500715 -37.79237213 117.66667107 -40.23046875 117.7109375 C-54.32131066 117.81869094 -66.57897127 115.20700346 -77.125 105.125 C-77.74890625 104.52945313 -78.3728125 103.93390625 -79.015625 103.3203125 C-92.22358746 89.48066488 -94.45637283 70.20700026 -94.27734375 51.90625 C-93.54924601 33.8344908 -89.85793661 16.69767829 -76.1796875 3.87109375 C-56.83442884 -12.56869831 -21.26791736 -13.18610876 0 0 Z M-59.125 22.125 C-66.1889676 32.39986196 -66.48788417 42.68647042 -66.5 54.875 C-66.52449219 56.15632813 -66.54898438 57.43765625 -66.57421875 58.7578125 C-66.60583372 69.1485998 -65.39248187 81.07184441 -58.125 89.125 C-51.72893523 94.75735555 -45.48614059 96.35846384 -37.125 97.125 C-35.4234375 97.3415625 -35.4234375 97.3415625 -33.6875 97.5625 C-25.87005875 96.60246336 -17.90685166 93.54859579 -12.125 88.125 C-2.63796476 73.48996113 -2.54355469 54.83827571 -5.4296875 38.171875 C-6.92191893 31.63288332 -9.09351143 24.75926579 -14.125 20.125 C-27.25497618 12.41827485 -47.6425773 9.62942236 -59.125 22.125 Z " fill="#03035C" transform="translate(308.125,48.875)"/>
<path d="M0 0 C1.12019531 -0.00128906 2.24039062 -0.00257812 3.39453125 -0.00390625 C4.57402344 -0.00003906 5.75351562 0.00382812 6.96875 0.0078125 C8.73798828 0.00201172 8.73798828 0.00201172 10.54296875 -0.00390625 C12.22326172 -0.00197266 12.22326172 -0.00197266 13.9375 0 C14.97326172 0.00112793 16.00902344 0.00225586 17.07617188 0.00341797 C19.46875 0.1328125 19.46875 0.1328125 20.46875 1.1328125 C20.57789594 3.70696029 20.62297588 6.25526252 20.62646484 8.83032227 C20.63408592 10.04021568 20.63408592 10.04021568 20.64186096 11.27455139 C20.65259068 13.03318241 20.66120058 14.7918273 20.66798019 16.55047798 C20.67974498 19.33783773 20.69919464 22.12504083 20.72109985 24.91233826 C20.78277481 32.84002425 20.8366513 40.76769759 20.87011719 48.69555664 C20.89112171 53.54033266 20.92648004 58.38482887 20.97087479 63.2294445 C20.98499896 65.07328929 20.9937491 66.91718365 20.99692917 68.76107979 C21.00186532 71.3508619 21.0250951 73.93990942 21.05224609 76.52954102 C21.04923996 77.2846698 21.04623383 78.03979858 21.0431366 78.81781006 C21.14024759 85.08885267 22.26006001 90.86442819 26.78125 95.5078125 C33.41079952 99.51637732 39.8607994 99.90893844 47.46875 99.1328125 C54.2769284 97.36878868 60.7143394 94.37387517 64.6484375 88.31640625 C68.36765566 81.38020011 69.70855625 74.35998409 69.77172852 66.53930664 C69.78438751 65.47194778 69.78438751 65.47194778 69.79730225 64.38302612 C69.82282673 62.06133263 69.83515558 59.73976543 69.84765625 57.41796875 C69.86384888 55.79511023 69.8810307 54.17226131 69.89915466 52.54942322 C69.94461899 48.30024639 69.9795518 44.05105651 70.01135254 39.80175781 C70.0634583 32.97622252 70.12822901 26.15082683 70.19956779 19.32546806 C70.22243893 16.94062962 70.23867643 14.55580932 70.25428772 12.1709137 C70.26768548 10.72079255 70.28129949 9.27067338 70.29516602 7.82055664 C70.30943382 5.91482628 70.30943382 5.91482628 70.32398987 3.97059631 C70.46875 1.1328125 70.46875 1.1328125 71.46875 0.1328125 C73.23734193 0.03334797 75.00986451 0.00201033 76.78125 0 C77.85632813 -0.00128906 78.93140625 -0.00257812 80.0390625 -0.00390625 C81.17085938 -0.00003906 82.30265625 0.00382812 83.46875 0.0078125 C84.60054688 0.00394531 85.73234375 0.00007813 86.8984375 -0.00390625 C87.97351563 -0.00261719 89.04859375 -0.00132813 90.15625 0 C91.15011719 0.00112793 92.14398438 0.00225586 93.16796875 0.00341797 C95.46875 0.1328125 95.46875 0.1328125 96.46875 1.1328125 C96.56463124 2.68901646 96.59063033 4.24957704 96.58900452 5.80873108 C96.59106651 7.32534081 96.59106651 7.32534081 96.59317017 8.87258911 C96.58777725 10.55032913 96.58777725 10.55032913 96.58227539 12.26196289 C96.58242142 13.43253738 96.58256744 14.60311188 96.5827179 15.80915833 C96.58213895 19.02802193 96.57710991 22.24684254 96.57014394 25.46569753 C96.56390957 28.8262865 96.56330654 32.18687623 96.56211853 35.54747009 C96.55900546 41.91523592 96.5507924 48.28298466 96.54076904 54.65074295 C96.52960715 61.89850979 96.52409726 69.14627743 96.51907361 76.39405072 C96.50860977 91.30698109 96.49081031 106.21989445 96.46875 121.1328125 C86.07375 121.6278125 86.07375 121.6278125 75.46875 122.1328125 C73.93503155 116.76479794 73.037994 112.54063049 72.46875 107.1328125 C71.540625 107.9784375 70.6125 108.8240625 69.65625 109.6953125 C58.90175063 118.89784143 49.83875155 122.51913298 35.74804688 122.55834961 C33.73702552 122.57020476 31.72912172 122.61941621 29.71875 122.66992188 C19.20008995 122.72754402 10.86856066 120.3130435 3.06640625 113.02734375 C-8.32829887 99.51528511 -6.83516806 80.30478838 -6.76171875 63.66796875 C-6.76052322 61.85477227 -6.76007457 60.04157515 -6.7603302 58.2283783 C-6.75878138 54.46772266 -6.75060665 50.70716439 -6.73706055 46.9465332 C-6.7198881 42.11778504 -6.71625227 37.28914139 -6.71700573 32.46036625 C-6.71673485 28.73476661 -6.71126984 25.00918997 -6.70400429 21.28359795 C-6.70081883 19.50092174 -6.6988505 17.71824294 -6.69811058 15.93556404 C-6.6959561 13.46358835 -6.68723689 10.99172677 -6.67651367 8.51977539 C-6.67696686 7.78174683 -6.67742004 7.04371826 -6.67788696 6.2833252 C-6.63806745 0.04463674 -6.11047957 0.00665422 0 0 Z " fill="#02035C" transform="translate(356.53125,43.8671875)"/>
<path d="M0 0 C1.1653125 -0.00128906 2.330625 -0.00257813 3.53125 -0.00390625 C4.7584375 -0.00003906 5.985625 0.00382813 7.25 0.0078125 C9.09078125 0.00201172 9.09078125 0.00201172 10.96875 -0.00390625 C12.71671875 -0.00197266 12.71671875 -0.00197266 14.5 0 C15.57765625 0.00112793 16.6553125 0.00225586 17.765625 0.00341797 C20.25 0.1328125 20.25 0.1328125 21.25 1.1328125 C21.34622036 2.84106938 21.37187628 4.55333364 21.37025452 6.26429749 C21.37162918 7.37634048 21.37300385 8.48838348 21.37442017 9.63412476 C21.37082489 10.86482697 21.36722961 12.09552917 21.36352539 13.36352539 C21.36367142 14.65114273 21.36381744 15.93876007 21.3639679 17.26539612 C21.36425586 20.8065601 21.35835936 24.34769049 21.35139394 27.88884664 C21.34516017 31.58576238 21.34455658 35.28267881 21.34336853 38.979599 C21.34025528 45.98485149 21.33204199 52.99008845 21.32201904 59.99533409 C21.3108577 67.96860126 21.3053474 75.94186915 21.30032361 83.91514218 C21.28985937 100.32104139 21.27226005 116.72692497 21.25 133.1328125 C22.19769257 133.12615067 23.14538513 133.11948883 24.12179565 133.11262512 C33.03911922 133.05189348 41.956401 133.00687822 50.8738842 132.97737598 C55.45881625 132.96169884 60.04358178 132.94042344 64.62841797 132.90649414 C69.05043303 132.87397339 73.47228761 132.85597493 77.89441299 132.84818077 C79.5841843 132.84262411 81.2739465 132.83177372 82.96364975 132.81562233 C85.32475738 132.79394436 87.6851961 132.79084145 90.04638672 132.79223633 C90.74985229 132.7814505 91.45331787 132.77066467 92.17810059 132.759552 C94.12423706 132.77204895 94.12423706 132.77204895 97.25 133.1328125 C99.41953768 136.38711902 99.47098516 137.05453635 99.26171875 140.765625 C99.21466797 141.65378906 99.16761719 142.54195312 99.11914062 143.45703125 C99.05919922 144.38128906 98.99925781 145.30554688 98.9375 146.2578125 C98.88916016 147.18980469 98.84082031 148.12179688 98.79101562 149.08203125 C98.39389479 155.98891771 98.39389479 155.98891771 97.25 157.1328125 C95.89706324 157.24018396 94.53864581 157.27959888 93.1815033 157.29103088 C91.86683327 157.30571411 91.86683327 157.30571411 90.52560425 157.32069397 C89.07228195 157.32932716 89.07228195 157.32932716 87.58959961 157.33813477 C86.57508224 157.34803436 85.56056488 157.35793396 84.51530457 157.36813354 C81.14434179 157.39985378 77.7733649 157.4245474 74.40234375 157.44921875 C72.07206342 157.4697792 69.7417869 157.49077542 67.41151428 157.51219177 C61.26466953 157.56750636 55.11779061 157.6168741 48.97088623 157.66503906 C42.70386701 157.71518573 36.43689769 157.77090738 30.16992188 157.82617188 C17.86332383 157.93386819 5.55668255 158.0352875 -6.75 158.1328125 C-6.77332725 137.67982776 -6.79097832 117.22684571 -6.80181217 96.77385044 C-6.8069755 87.27785867 -6.81401889 77.78187515 -6.82543945 68.28588867 C-6.83538517 60.01228405 -6.84185316 51.73868539 -6.84408849 43.46507496 C-6.84539579 39.0814766 -6.84848285 34.69789534 -6.85573006 30.31430244 C-6.86248851 26.1931775 -6.86461732 22.07207677 -6.86310768 17.95094681 C-6.86338409 16.43394909 -6.86539025 14.9169506 -6.86920547 13.39995766 C-6.87414001 11.33773949 -6.8729992 9.27561424 -6.87025452 7.21339417 C-6.87117631 6.05654397 -6.8720981 4.89969378 -6.87304783 3.70778751 C-6.64593564 -1.04490267 -4.18814358 0.00438352 0 0 Z " fill="#02035D" transform="translate(620.75,6.8671875)"/>
<path d="M0 0 C8.58 0 17.16 0 26 0 C26 54.45 26 108.9 26 165 C1 164 1 164 0 163 C-0.09687035 160.89906175 -0.12186861 158.79480483 -0.12025452 156.69163513 C-0.12110894 156.02516167 -0.12196337 155.35868821 -0.12284368 154.67201859 C-0.12450035 152.42251366 -0.11897411 150.17308212 -0.11352539 147.92358398 C-0.11324353 146.31754559 -0.11340122 144.71150707 -0.1139679 143.10546875 C-0.11425593 138.73168933 -0.10835832 134.35793708 -0.10139394 129.984164 C-0.09516131 125.41840422 -0.09455667 120.85264387 -0.09336853 116.28688049 C-0.09025495 107.63478695 -0.08204119 98.98270597 -0.07201904 90.33061796 C-0.06085874 80.48314177 -0.05534766 70.63566499 -0.05032361 60.78818405 C-0.0398586 40.52544881 -0.02205825 20.26272564 0 0 Z " fill="#02045D" transform="translate(167,0)"/>
<path d="M0 0 C0.66 0 1.32 0 2 0 C2 53.79 2 107.58 2 163 C9.26 163 16.52 163 24 163 C24 150.79 24 138.58 24 126 C24.33 126 24.66 126 25 126 C26.05736038 139.00930892 26.11145896 151.95415744 26 165 C21.85387186 164.86186975 17.70818838 164.71321141 13.5625 164.5625 C12.37849609 164.52318359 11.19449219 164.48386719 9.97460938 164.44335938 C8.84990234 164.40146484 7.72519531 164.35957031 6.56640625 164.31640625 C5.00321655 164.26141968 5.00321655 164.26141968 3.40844727 164.20532227 C1 164 1 164 0 163 C-0.09687035 160.89906175 -0.12186861 158.79480483 -0.12025452 156.69163513 C-0.12110894 156.02516167 -0.12196337 155.35868821 -0.12284368 154.67201859 C-0.12450035 152.42251366 -0.11897411 150.17308212 -0.11352539 147.92358398 C-0.11324353 146.31754559 -0.11340122 144.71150707 -0.1139679 143.10546875 C-0.11425593 138.73168933 -0.10835832 134.35793708 -0.10139394 129.984164 C-0.09516131 125.41840422 -0.09455667 120.85264387 -0.09336853 116.28688049 C-0.09025495 107.63478695 -0.08204119 98.98270597 -0.07201904 90.33061796 C-0.06085874 80.48314177 -0.05534766 70.63566499 -0.05032361 60.78818405 C-0.0398586 40.525449 -0.02225864 20.26272529 0 0 Z " fill="#05024A" transform="translate(167,0)"/>
<path d="M0 0 C1.4540625 0.0309375 1.4540625 0.0309375 2.9375 0.0625 C1.6175 0.3925 0.2975 0.7225 -1.0625 1.0625 C-1.3925 25.1525 -1.7225 49.2425 -2.0625 74.0625 C-2.7225 74.0625 -3.3825 74.0625 -4.0625 74.0625 C-4.08562484 64.56175675 -4.1034158 55.06102312 -4.11431217 45.56025791 C-4.11954069 41.14912996 -4.12663777 36.7380212 -4.13793945 32.3269043 C-4.14876944 28.07348885 -4.15477707 23.82009191 -4.15737724 19.56666374 C-4.15923129 17.94028367 -4.16285152 16.31390466 -4.16823006 14.68753242 C-4.17544198 12.41739807 -4.17649088 10.14734115 -4.17602539 7.87719727 C-4.178246 6.58258072 -4.18046661 5.28796417 -4.18275452 3.95411682 C-4.01707337 -0.02981994 -4.01471745 0.08193301 0 0 Z " fill="#030248" transform="translate(431.0625,43.9375)"/>
<path d="M0 0 C0.33 0 0.66 0 1 0 C1.33 6.93 1.66 13.86 2 21 C8.27 21.33 14.54 21.66 21 22 C21.33 21.34 21.66 20.68 22 20 C22 20.99 22 21.98 22 23 C11.605 23.495 11.605 23.495 1 24 C-0.25248502 21.49502996 -0.11374406 19.79146726 -0.09765625 16.9921875 C-0.09443359 16.00605469 -0.09121094 15.01992187 -0.08789062 14.00390625 C-0.07951172 12.97136719 -0.07113281 11.93882812 -0.0625 10.875 C-0.05798828 9.83472656 -0.05347656 8.79445312 -0.04882812 7.72265625 C-0.03701952 5.14838038 -0.02055075 2.57421854 0 0 Z " fill="#01013F" transform="translate(859,141)"/>
<path d="M0 0 C4.31248609 -0.02886537 8.62494762 -0.04675255 12.9375 -0.0625 C14.16919922 -0.07087891 15.40089844 -0.07925781 16.66992188 -0.08789062 C17.83974609 -0.09111328 19.00957031 -0.09433594 20.21484375 -0.09765625 C21.84087524 -0.10551147 21.84087524 -0.10551147 23.49975586 -0.11352539 C26 0 26 0 27 1 C27.04080783 2.99958364 27.04254356 5.00045254 27 7 C26.34 5.68 25.68 4.36 25 3 C16.75 2.67 8.5 2.34 0 2 C-0.33 2.66 -0.66 3.32 -1 4 C-0.67 2.68 -0.34 1.36 0 0 Z " fill="#030146" transform="translate(615,7)"/>
<path d="M0 0 C0.66 0.33 1.32 0.66 2 1 C1.52536543 5.8412726 0.63438847 8.93865112 -2 13 C-2.12375 13.66 -2.2475 14.32 -2.375 15 C-3.38762874 18.24041197 -5.44684505 19.85302879 -8 22 C-10.8125 22.8125 -10.8125 22.8125 -13 23 C-11.9171875 21.9790625 -11.9171875 21.9790625 -10.8125 20.9375 C-4.55188084 14.57046805 -1.94695744 8.75339401 0 0 Z " fill="#06044E" transform="translate(426,118)"/>
<path d="M0 0 C0.33 0 0.66 0 1 0 C1 4.29 1 8.58 1 13 C-7.25 12.67 -15.5 12.34 -24 12 C-24 11.67 -24 11.34 -24 11 C-16.41 10.67 -8.82 10.34 -1 10 C-0.67 6.7 -0.34 3.4 0 0 Z " fill="#000043" transform="translate(192,152)"/>
<path d="M0 0 C0.66 0.33 1.32 0.66 2 1 C-6.60757813 9.99203572 -6.60757813 9.99203572 -11 12 C-11.99 12 -12.98 12 -14 12 C-12.61068357 10.55620057 -11.21323422 9.12022488 -9.8125 7.6875 C-9.03519531 6.88699219 -8.25789063 6.08648437 -7.45703125 5.26171875 C-5.07541876 3.06942363 -2.90201322 1.42905861 0 0 Z " fill="#070652" transform="translate(500,45)"/>
<path d="M0 0 C-0.75925781 0.32613281 -1.51851562 0.65226562 -2.30078125 0.98828125 C-3.29464844 1.42527344 -4.28851563 1.86226562 -5.3125 2.3125 C-6.29863281 2.74175781 -7.28476563 3.17101563 -8.30078125 3.61328125 C-10.74140171 4.86714559 -12.23147386 5.94174944 -14 8 C-14.66 7.67 -15.32 7.34 -16 7 C-16 6.34 -16 5.68 -16 5 C-14.3970947 4.18501438 -12.79262722 3.37310073 -11.1875 2.5625 C-10.29417969 2.11003906 -9.40085938 1.65757813 -8.48046875 1.19140625 C-3.54193548 -1.18064516 -3.54193548 -1.18064516 0 0 Z " fill="#050345" transform="translate(253,44)"/>
<path d="M0 0 C0.33 0 0.66 0 1 0 C1 1.65 1 3.3 1 5 C-0.98 5.99 -0.98 5.99 -3 7 C-3 8.65 -3 10.3 -3 12 C-3.66 12 -4.32 12 -5 12 C-4.52496041 7.01208429 -3.0298864 3.9767259 0 0 Z " fill="#03044D" transform="translate(484,61)"/>
<path d="M0 0 C0.99 0.33 1.98 0.66 3 1 C4.22329074 4.66987221 3.88021006 7.33967822 3.5625 11.1875 C3.46066406 12.45980469 3.35882812 13.73210937 3.25390625 15.04296875 C3.17011719 16.01878906 3.08632813 16.99460938 3 18 C2.67 18 2.34 18 2 18 C1.93941406 17.11957031 1.87882813 16.23914063 1.81640625 15.33203125 C1.73261719 14.17058594 1.64882813 13.00914062 1.5625 11.8125 C1.48128906 10.66394531 1.40007813 9.51539063 1.31640625 8.33203125 C1.04596188 5.48401829 0.62478253 2.78789518 0 0 Z " fill="#000036" transform="translate(842,145)"/>
<path d="M0 0 C0.33 0 0.66 0 1 0 C1 4.62 1 9.24 1 14 C-0.65 14.33 -2.3 14.66 -4 15 C-4 14.34 -4 13.68 -4 13 C-2.68 12.67 -1.36 12.34 0 12 C0 8.04 0 4.08 0 0 Z " fill="#04044C" transform="translate(843,150)"/>
<path d="M0 0 C-1.33333333 0.66666667 -2.66666667 1.33333333 -4 2 C-4.99 2.556875 -4.99 2.556875 -6 3.125 C-8 4 -8 4 -12 4 C-12 3.34 -12 2.68 -12 2 C-7.8794254 0.00214565 -4.54805635 -0.17835515 0 0 Z " fill="#07054D" transform="translate(763,96)"/>
</svg>
