<?xml version="1.0" encoding="UTF-8"?>
<svg version="1.1" xmlns="http://www.w3.org/2000/svg" width="967" height="166">
<path d="M0 0 C11.2703441 10.10866306 15.48443805 24.93042938 17.1796875 39.4921875 C16.94356626 42.78761877 16.01872718 44.39406024 14 47 C11.41210938 47.59936523 11.41210938 47.59936523 8.34375 47.55859375 C7.23902344 47.55150391 6.13429687 47.54441406 4.99609375 47.53710938 C3.26552734 47.48780273 3.26552734 47.48780273 1.5 47.4375 C-0.23056641 47.42879883 -0.23056641 47.42879883 -1.99609375 47.41992188 C-10.55742758 47.29504828 -10.55742758 47.29504828 -14 45 C-14.80859375 41.8046875 -14.80859375 41.8046875 -15.4375 37.875 C-16.99583702 29.20854922 -18.92998594 22.87529888 -26.01953125 17.3125 C-37.71500156 9.56165577 -51.79325182 8.49138133 -65.3828125 10.5 C-74.3370811 12.51528296 -81.88628864 16.01290131 -88 23 C-88.680625 23.721875 -89.36125 24.44375 -90.0625 25.1875 C-100.97253793 41.02465183 -101.52870581 65.61685336 -98.23828125 83.94921875 C-97.41595973 87.72550663 -96.29988042 91.35852313 -95 95 C-94.72285156 95.78890625 -94.44570312 96.5778125 -94.16015625 97.390625 C-90.46228128 106.04740143 -83.15763051 113.37752007 -74.58203125 117.10546875 C-60.52022399 121.97710848 -46.55132003 120.61574811 -32.484375 116.875 C-29 116 -29 116 -26 116 C-26 115.01 -26 114.02 -26 113 C-24.609375 111.74609375 -24.609375 111.74609375 -22.75 110.4375 C-15.95217411 104.86190947 -14.64619341 96.60584453 -13.58984375 88.25 C-13 86 -13 86 -10 84 C-7.48803711 83.75708008 -7.48803711 83.75708008 -4.52734375 83.76953125 C-3.46322266 83.77146484 -2.39910156 83.77339844 -1.30273438 83.77539062 C-0.19220703 83.78763672 0.91832031 83.79988281 2.0625 83.8125 C3.17689453 83.81314453 4.29128906 83.81378906 5.43945312 83.81445312 C13.71928648 83.85964324 13.71928648 83.85964324 16 85 C16.8901472 101.49244955 12.53149119 115.36995229 2 128.1875 C-6.85272504 137.57856643 -20.34121621 144.28199182 -33.28463745 145.15390015 C-34.06324127 145.16676056 -34.84184509 145.17962097 -35.64404297 145.19287109 C-36.53622528 145.20893402 -37.42840759 145.22499695 -38.34762573 145.24154663 C-42.44300097 145.28666748 -46.53822208 145.32711677 -50.63378906 145.35009766 C-52.77680391 145.36656252 -54.91976603 145.39372513 -57.0625 145.43212891 C-75.58624081 145.76168184 -89.2810172 143.56678206 -105 133 C-105.65355469 132.56300781 -106.30710937 132.12601563 -106.98046875 131.67578125 C-118.68372199 122.7577416 -126.2984299 106.45647953 -128.71069336 92.29150391 C-129.73559854 84.17356293 -129.55763381 75.90419002 -129.5559082 67.73632812 C-129.56246028 64.27100523 -129.61704799 60.80856723 -129.67382812 57.34375 C-129.82032199 38.13205183 -126.16180318 23.82576151 -115 8 C-114.51917969 7.31550781 -114.03835937 6.63101562 -113.54296875 5.92578125 C-103.45604082 -7.00990443 -86.68893643 -13.92218681 -70.88330078 -16.32128906 C-45.51374489 -19.43049446 -20.3633296 -16.35697575 0 0 Z " fill="#EFEFF4" transform="translate(129,21)"/>
<path d="M0 0 C9.24 0 18.48 0 28 0 C28.8239559 4.11977949 29.12970525 7.39329085 29.14044189 11.54141235 C29.14341302 12.1846855 29.14638414 12.82795865 29.1494453 13.49072492 C29.1580903 15.63787293 29.15963692 17.7849649 29.16113281 19.93212891 C29.16576369 21.47477842 29.17078872 23.0174268 29.17617798 24.56007385 C29.18927164 28.74372965 29.19574015 32.92736943 29.20018864 37.1110425 C29.20312221 39.72407909 29.2072274 42.33711133 29.21169281 44.95014572 C29.22535521 53.12416043 29.23502993 61.29816516 29.2388947 69.4721905 C29.24338274 78.91225788 29.26097034 88.352181 29.2898953 97.7922045 C29.31147948 105.08911011 29.32159711 112.38597502 29.32293582 119.68291223 C29.32398552 124.04195671 29.32992913 128.40086533 29.34775543 132.75987625 C29.36418142 136.85569582 29.3664185 140.95127655 29.35761642 145.04711723 C29.35684329 146.55199636 29.36122491 148.05688806 29.37107468 149.56173515 C29.38371016 151.61196982 29.37615647 153.66229963 29.36749268 155.71255493 C29.36969252 157.43532371 29.36969252 157.43532371 29.3719368 159.19289589 C29 162 29 162 27.60435104 163.86969566 C25.51383621 165.34251422 24.20069936 165.37324575 21.65625 165.36328125 C20.82222656 165.36263672 19.98820313 165.36199219 19.12890625 165.36132812 C18.26136719 165.34521484 17.39382813 165.32910156 16.5 165.3125 C15.19869141 165.31733398 15.19869141 165.31733398 13.87109375 165.32226562 C7.40089591 165.26726394 7.40089591 165.26726394 4 163 C3.48828125 160.6171875 3.48828125 160.6171875 3.3125 157.875 C3.24675781 156.96492187 3.18101562 156.05484375 3.11328125 155.1171875 C3.05720703 154.06917969 3.05720703 154.06917969 3 153 C2.55011719 153.44730469 2.10023438 153.89460937 1.63671875 154.35546875 C-8.47486611 163.85914269 -18.8815773 166.23942801 -32.34887695 166.35009766 C-33.81225597 166.36656007 -35.27555787 166.39372047 -36.73852539 166.43212891 C-47.70108303 166.71790339 -55.02916227 165.09763374 -64.1875 158.8125 C-78.81634975 144.18365025 -82.79055353 124.87117857 -83.1875 104.875 C-82.94755734 84.59984497 -79.69437733 64.62768183 -64.76953125 49.78125 C-53.09358417 40.02718447 -39.55993169 39.1126001 -25 40 C-15.78005805 41.29827345 -7.58281813 45.41718187 -1 52 C-0.67 34.84 -0.34 17.68 0 0 Z M-48 72 C-49.61929291 74.71903723 -49.61929291 74.71903723 -50.75 77.75 C-51.15734375 78.73484375 -51.5646875 79.7196875 -51.984375 80.734375 C-54.41798323 88.55936147 -54.21256316 96.62620512 -54.25 104.75 C-54.270625 105.8534375 -54.29125 106.956875 -54.3125 108.09375 C-54.3621589 118.67109546 -53.09121054 129.65976942 -46 138 C-39.4440225 143.53615878 -32.04426382 144.42654502 -23.74609375 144.25390625 C-17.31289738 143.65908724 -11.56505014 141.69185709 -7 137 C0.28859995 127.79105036 1.52756237 117.03824336 1.375 105.625 C1.36484863 104.52663818 1.35469727 103.42827637 1.34423828 102.29663086 C1.12345951 90.75537792 0.06715823 79.00637 -8 70 C-20.76526886 61.26799144 -36.44482407 61.39686603 -48 72 Z " fill="#EEEEF4" transform="translate(556,0)"/>
<path d="M0 0 C1.12591553 0.00523682 2.25183105 0.01047363 3.41186523 0.01586914 C4.50571533 0.0183667 5.59956543 0.02086426 6.7265625 0.0234375 C8.82729126 0.03709351 8.82729126 0.03709351 10.97045898 0.05102539 C17.62202148 0.08196289 17.62202148 0.08196289 24.40795898 0.11352539 C24.73795898 17.27352539 25.06795898 34.43352539 25.40795898 52.11352539 C28.37795898 49.80352539 31.34795898 47.49352539 34.40795898 45.11352539 C37.29858398 43.59008789 37.29858398 43.59008789 39.65795898 42.73852539 C40.84131836 42.29379883 40.84131836 42.29379883 42.04858398 41.84008789 C53.44450739 38.33074724 67.23785717 39.080294 78.40795898 43.11352539 C81.66174967 44.83953323 84.5215672 46.83479503 87.40795898 49.11352539 C88.29483398 49.73227539 89.18170898 50.35102539 90.09545898 50.98852539 C99.70203372 59.81618866 105.24511916 72.46938029 105.81201172 85.45458984 C105.83809816 87.29517026 105.84737971 89.13605059 105.84155273 90.97680664 C105.84679459 91.9712529 105.85203644 92.96569916 105.85743713 93.99028015 C105.8638129 96.07847162 105.86257861 98.16669922 105.85400391 100.25488281 C105.84550674 103.40830082 105.87429895 106.55989541 105.90600586 109.71313477 C105.96808577 127.34009051 103.58766896 143.38367051 91.40795898 157.11352539 C88.82202148 159.06274414 88.82202148 159.06274414 86.03295898 160.80102539 C85.11772461 161.38239258 84.20249023 161.96375977 83.25952148 162.56274414 C75.89121445 166.56989194 68.69228073 166.55084427 60.51538086 166.59399414 C58.30873502 166.61329988 56.10591112 166.67536256 53.90014648 166.73852539 C41.02591019 166.93051852 31.82571657 163.10320309 22.40795898 154.11352539 C22.27518555 154.82379883 22.14241211 155.53407227 22.00561523 156.26586914 C21.82901367 157.1849707 21.65241211 158.10407227 21.47045898 159.05102539 C21.29643555 159.96754883 21.12241211 160.88407227 20.94311523 161.82836914 C20.40795898 164.11352539 20.40795898 164.11352539 19.40795898 165.11352539 C17.77323017 165.20052881 16.13481843 165.22053602 14.49780273 165.21118164 C13.50844727 165.20795898 12.5190918 165.20473633 11.49975586 165.20141602 C10.45883789 165.19303711 9.41791992 165.1846582 8.34545898 165.17602539 C7.30067383 165.17151367 6.25588867 165.16700195 5.17944336 165.16235352 C2.58889239 165.15052452 -0.0015466 165.13404228 -2.59204102 165.11352539 C-3.71598943 161.74168014 -3.71789186 159.20231688 -3.71902466 155.64730835 C-3.72058465 154.98799871 -3.72214464 154.32868907 -3.7237519 153.64940035 C-3.72774648 151.43608479 -3.72457825 149.22283758 -3.72143555 147.00952148 C-3.72279024 145.42451436 -3.72457056 143.83950755 -3.72674561 142.25450134 C-3.73131104 137.94689016 -3.72953421 133.63930288 -3.72636652 129.33169127 C-3.72383923 124.83047132 -3.72618141 120.32925347 -3.72775269 115.82803345 C-3.72957292 108.27052441 -3.72717149 100.71302514 -3.72241211 93.15551758 C-3.71696584 84.40598945 -3.71873538 75.6564846 -3.72423851 66.90695703 C-3.7287691 59.40460554 -3.72942058 51.90226108 -3.72679985 44.39990866 C-3.72523728 39.9146363 -3.72504284 35.42937491 -3.72833633 30.94410324 C-3.73121439 26.73018611 -3.72924058 22.51629918 -3.72344208 18.30238533 C-3.72211429 16.75152321 -3.7225089 15.20065857 -3.72470474 13.64979744 C-3.72741545 11.54175513 -3.72403619 9.4338111 -3.71902466 7.32577515 C-3.71864763 6.14332403 -3.71827061 4.96087292 -3.71788216 3.74258995 C-3.54963784 0.22764109 -3.51270642 0.1538484 0 0 Z M30.40795898 72.11352539 C24.73837762 82.22593659 23.02974766 91.89642265 23.09545898 103.36352539 C23.10037354 104.37552002 23.10528809 105.38751465 23.11035156 106.43017578 C23.30692685 119.00998641 25.09222042 129.65424731 34.15795898 138.92602539 C42.89092815 144.80398541 51.87189246 144.9997717 62.09545898 143.61352539 C68.23917806 140.83146392 72.99512701 137.22175574 75.83374023 130.97680664 C80.79698547 115.43733702 82.67175408 92.73428035 75.53295898 77.61352539 C71.83632227 71.16810754 67.82707228 66.85455966 60.57202148 64.52368164 C50.19270976 62.55648357 37.81424715 63.8608043 30.40795898 72.11352539 Z " fill="#EEEEF4" transform="translate(861.592041015625,-0.113525390625)"/>
<path d="M0 0 C8.2951256 8.13053977 11.27271465 18.55900917 11.45410156 29.9934082 C11.46827614 32.93005181 11.43226433 35.86447834 11.390625 38.80078125 C11.38314352 40.37403129 11.37745964 41.9472908 11.37347412 43.52055359 C11.35836738 47.61582204 11.31921969 51.71050232 11.2746582 55.80554199 C11.23337789 60.0024419 11.21539394 64.19943898 11.1953125 68.39648438 C11.15270671 76.59792299 11.08464302 84.79888787 11 93 C11.91523437 92.97679687 12.83046875 92.95359375 13.7734375 92.9296875 C14.96195313 92.91164063 16.15046875 92.89359375 17.375 92.875 C19.15003906 92.84019531 19.15003906 92.84019531 20.9609375 92.8046875 C24 93 24 93 26 95 C27.18280123 100.62601979 27.3696888 106.40710406 26 112 C24.82299805 113.65771484 24.82299805 113.65771484 23 115 C18.63914352 115.73162097 14.22784936 115.60179795 9.8125 115.625 C8.00168945 115.69267578 8.00168945 115.69267578 6.15429688 115.76171875 C0.18358694 115.80742129 -3.98090726 115.72816658 -8.61328125 111.7109375 C-9.77076881 110.50066095 -10.90346983 109.2657679 -12 108 C-12.825 107.195625 -13.65 106.39125 -14.5 105.5625 C-14.995 105.046875 -15.49 104.53125 -16 104 C-16.67804688 104.45890625 -17.35609375 104.9178125 -18.0546875 105.390625 C-18.98539063 106.00421875 -19.91609375 106.6178125 -20.875 107.25 C-21.77992188 107.85328125 -22.68484375 108.4565625 -23.6171875 109.078125 C-32.86790485 114.33372885 -40.78736877 115.64380045 -51.30419922 115.52148438 C-53.4968928 115.5000304 -55.68631169 115.52137401 -57.87890625 115.546875 C-69.0532735 115.56996875 -77.99052454 113.8126773 -86.3125 105.91015625 C-92.40162413 99.01760602 -94.55724422 89.25137584 -94.24609375 80.19140625 C-92.90427195 68.24280256 -88.52772617 59.19576497 -79.1796875 51.55859375 C-61.96316063 39.24785141 -39.38522383 38.73239283 -19 39 C-18.9183918 36.62429457 -18.85922778 34.25144159 -18.8125 31.875 C-18.78736328 31.20984375 -18.76222656 30.5446875 -18.73632812 29.859375 C-18.66632928 25.09945342 -19.67844396 22.10689966 -22 18 C-22 17.34 -22 16.68 -22 16 C-32.25028376 13.06232237 -40.55508755 12.33586262 -51 15 C-52.69246443 15.95568924 -54.36684245 16.94616215 -56 18 C-56.66 18 -57.32 18 -58 18 C-58.19335938 18.84304687 -58.38671875 19.68609375 -58.5859375 20.5546875 C-58.84632813 21.65039062 -59.10671875 22.74609375 -59.375 23.875 C-59.75785156 25.51082031 -59.75785156 25.51082031 -60.1484375 27.1796875 C-61 30 -61 30 -63 32 C-65.19897461 32.25878906 -65.19897461 32.25878906 -67.90234375 32.265625 C-69.36124023 32.26949219 -69.36124023 32.26949219 -70.84960938 32.2734375 C-72.37811523 32.26183594 -72.37811523 32.26183594 -73.9375 32.25 C-74.95263672 32.25773437 -75.96777344 32.26546875 -77.01367188 32.2734375 C-77.98755859 32.27085938 -78.96144531 32.26828125 -79.96484375 32.265625 C-80.8580835 32.26336914 -81.75132324 32.26111328 -82.67163086 32.25878906 C-85 32 -85 32 -88 30 C-89.49786941 22.38180396 -87.40948751 13.84333596 -83.375 7.375 C-75.90729781 -2.92899292 -65.7805642 -8.34415566 -53.30859375 -10.65625 C-52.16583984 -10.82640625 -52.16583984 -10.82640625 -51 -11 C-50.14535156 -11.1340625 -49.29070313 -11.268125 -48.41015625 -11.40625 C-32.16293615 -13.36750565 -12.75734966 -10.94188067 0 0 Z M-48 63 C-49.14726563 63.35191406 -50.29453125 63.70382813 -51.4765625 64.06640625 C-58.56583402 66.26594439 -58.56583402 66.26594439 -63.8125 71.1875 C-65.73535648 77.36088132 -66.08200687 82.41259227 -63.5625 88.4375 C-58.46001581 93.53998419 -52.58479323 94.18078881 -45.5625 94.4375 C-38.13384296 94.25504176 -32.57529132 92.11267214 -26.25 88.375 C-20.33243157 82.12867777 -16.46167367 74.67386891 -16 66 C-16.28308031 63.99227077 -16.60622731 61.9889832 -17 60 C-27.75750235 59.69617933 -37.69051656 59.48347757 -48 63 Z " fill="#EEEEF4" transform="translate(820,51)"/>
<path d="M0 0 C12.23751421 10.49209953 18.01168344 25.72150777 19.52734375 41.484375 C20.66446324 61.56424119 19.46669424 81.28162471 7.6875 98.3125 C7.24792969 98.94929688 6.80835938 99.58609375 6.35546875 100.2421875 C0.28078198 108.12002337 -8.8166257 112.87205458 -18.3125 115.3125 C-21.59514035 115.72252126 -24.8348752 115.78046973 -28.140625 115.78125 C-29.05148865 115.78886353 -29.96235229 115.79647705 -30.90081787 115.80432129 C-32.81682618 115.81506028 -34.73289272 115.81800084 -36.64892578 115.81347656 C-39.54171179 115.81250697 -42.43181622 115.85414343 -45.32421875 115.8984375 C-59.6192546 115.99158807 -70.88580902 114.25693626 -82.09765625 104.53515625 C-95.85718737 90.72709063 -99.11953301 72.36934044 -99.5 53.625 C-99.26608244 35.5197807 -95.95538009 17.22238963 -83.5078125 3.29296875 C-62.39204357 -16.81520125 -22.82085367 -17.04690274 0 0 Z M-63.3125 20.3125 C-69.39699054 31.00483571 -70.66204216 41.56730467 -70.625 53.6875 C-70.64111328 54.73421875 -70.65722656 55.7809375 -70.67382812 56.859375 C-70.68032411 67.382866 -69.05905174 78.82714626 -62.3125 87.3125 C-54.65110079 93.77086958 -45.13094401 95.58460468 -35.3125 95.3125 C-31.37235665 94.45283236 -27.9329317 93.06905891 -24.3125 91.3125 C-23.55839844 90.98378906 -22.80429687 90.65507812 -22.02734375 90.31640625 C-15.6151134 87.04437095 -13.48566573 81.94724084 -11.3125 75.3125 C-6.44821742 58.56210758 -6.49869777 39.24652809 -14.3125 23.3125 C-17.11304749 19.11478358 -19.56841179 17.38082178 -24.25 15.5625 C-25.26964844 15.15515625 -26.28929687 14.7478125 -27.33984375 14.328125 C-39.00413403 10.34295355 -54.51401175 10.50847024 -63.3125 20.3125 Z " fill="#EEEEF4" transform="translate(312.3125,50.6875)"/>
<path d="M0 0 C1.010625 -0.01224609 2.02125 -0.02449219 3.0625 -0.03710938 C4.031875 -0.03904297 5.00125 -0.04097656 6 -0.04296875 C6.886875 -0.04707764 7.77375 -0.05118652 8.6875 -0.05541992 C11 0.1875 11 0.1875 14 2.1875 C14.30042818 4.83644625 14.40632132 7.25496365 14.38476562 9.90673828 C14.3901384 10.70372635 14.39551117 11.50071442 14.40104675 12.32185364 C14.41084576 14.05644426 14.41376251 15.79108403 14.41069031 17.52569962 C14.40622126 20.27549911 14.42018922 23.02465183 14.43908691 25.77438354 C14.47594298 31.62041157 14.48957696 37.46637292 14.5 43.3125 C14.51208997 50.06690175 14.5337721 56.82099078 14.58000183 63.57525253 C14.59352915 66.27621633 14.58940724 68.97678074 14.58459473 71.67776489 C14.59394304 73.3491465 14.60411379 75.02052378 14.61523438 76.69189453 C14.60908615 77.43610153 14.60293793 78.18030853 14.59660339 78.94706726 C14.65868689 84.29421297 15.92543895 88.25677554 18 93.1875 C18.33 94.1775 18.66 95.1675 19 96.1875 C27.38272087 99.88441683 36.60847166 100.62176319 45.25 97.625 C52.7000274 94.28533255 56.0693849 88.78321826 59.23828125 81.49609375 C60.90856161 76.43385943 61.12953825 71.42530705 61.15771484 66.12817383 C61.16279556 65.44936661 61.16787628 64.77055939 61.17311096 64.07118225 C61.18375255 62.60783458 61.19239669 61.14447126 61.19923019 59.68110085 C61.21108782 57.36517128 61.23055323 55.04942248 61.25234985 52.73356628 C61.31376829 46.1529233 61.36813138 39.57230592 61.40136719 32.99145508 C61.42228129 28.95787132 61.45754346 24.92462965 61.50212479 20.89124107 C61.51629538 19.35587261 61.52500962 17.82044378 61.52817917 16.2850132 C61.53307436 14.14252297 61.55618936 12.00094759 61.58349609 9.85864258 C61.59158295 8.63985916 61.5996698 7.42107574 61.60800171 6.1653595 C62 3.1875 62 3.1875 63.38150024 1.29382324 C65.6425823 -0.25173623 67.27692989 -0.18493401 70 -0.17578125 C70.969375 -0.17513672 71.93875 -0.17449219 72.9375 -0.17382812 C74.4534375 -0.1496582 74.4534375 -0.1496582 76 -0.125 C77.010625 -0.12822266 78.02125 -0.13144531 79.0625 -0.13476562 C86.59928571 -0.07964286 86.59928571 -0.07964286 90 2.1875 C90.3719368 4.26806545 90.3719368 4.26806545 90.36749268 6.88755798 C90.37306183 7.87884201 90.37863098 8.87012604 90.3843689 9.89144897 C90.37515411 10.98293243 90.36593933 12.07441589 90.35644531 13.19897461 C90.35848969 14.34536911 90.36053406 15.49176361 90.36264038 16.67289734 C90.365659 20.47870612 90.34713745 24.28408615 90.328125 28.08984375 C90.32506899 30.72538648 90.32319167 33.36093082 90.32244873 35.99647522 C90.31875361 41.52724784 90.30377558 47.05789655 90.28125 52.58862305 C90.25239169 59.68871846 90.24202836 66.78871396 90.2375679 73.88886166 C90.23401516 79.33367555 90.22360043 84.77846704 90.21169281 90.22326851 C90.20598319 92.84161759 90.20122678 95.45996891 90.19742584 98.07832146 C90.1905718 101.73446485 90.17694286 105.39051661 90.16113281 109.04663086 C90.16001495 110.13609009 90.15889709 111.22554932 90.15774536 112.34802246 C90.15203522 113.34212631 90.14632507 114.33623016 90.14044189 115.36045837 C90.13746723 116.22526793 90.13449257 117.0900775 90.13142776 117.98109341 C90 120.1875 90 120.1875 89 123.1875 C81.74 123.1875 74.48 123.1875 67 123.1875 C66.01 118.8975 65.02 114.6075 64 110.1875 C63.0925 111.05375 62.185 111.92 61.25 112.8125 C51.26342604 121.42796647 40.93303083 123.43646018 28.22387695 123.53759766 C26.7120006 123.55406444 25.20019906 123.58123069 23.6887207 123.61962891 C14.45851135 123.85248491 6.87878511 123.61193015 -1 118.1875 C-1.96550781 117.54425781 -2.93101562 116.90101563 -3.92578125 116.23828125 C-12.66325345 107.59953755 -14.92856806 93.81450725 -15.12698364 82.01235962 C-15.13280954 80.57026301 -15.13339506 79.12813799 -15.12939453 77.68603516 C-15.13114685 76.88974701 -15.13289917 76.09345886 -15.13470459 75.27304077 C-15.13906118 72.67419169 -15.13620887 70.07541211 -15.1328125 67.4765625 C-15.13348692 65.65815213 -15.1344581 63.83974185 -15.13571167 62.02133179 C-15.13717989 58.22726577 -15.13506083 54.43322341 -15.13037109 50.63916016 C-15.12464982 45.77342173 -15.12797344 40.90773818 -15.13394356 36.04200172 C-15.13755202 32.29486678 -15.13640969 28.54774492 -15.13381577 24.80060959 C-15.13314855 23.00562916 -15.13396776 21.21064754 -15.13629532 19.41566849 C-15.13882914 16.91461263 -15.13497201 14.41364679 -15.12939453 11.91259766 C-15.13141876 11.17076233 -15.13344299 10.428927 -15.13552856 9.66461182 C-15.12268708 6.56297966 -14.98882048 4.15396145 -14 1.1875 C-9.40280508 -0.34489831 -4.81473965 0.00307062 0 0 Z " fill="#ECEDF3" transform="translate(364,42.8125)"/>
<path d="M0 0 C2.47436523 -0.37231445 2.47436523 -0.37231445 5.55859375 -0.36328125 C6.66654297 -0.36263672 7.77449219 -0.36199219 8.91601562 -0.36132812 C10.65915039 -0.3371582 10.65915039 -0.3371582 12.4375 -0.3125 C13.59572266 -0.31572266 14.75394531 -0.31894531 15.94726562 -0.32226562 C24.59955495 -0.26696337 24.59955495 -0.26696337 28 2 C28.3719368 4.23394585 28.3719368 4.23394585 28.36749268 7.07296753 C28.37584641 8.68393814 28.37584641 8.68393814 28.3843689 10.32745361 C28.37515411 11.51087341 28.36593933 12.69429321 28.35644531 13.91357422 C28.35951187 15.77706009 28.35951187 15.77706009 28.36264038 17.67819214 C28.36513853 21.09166187 28.35421814 24.5045905 28.33711338 27.91798544 C28.32209738 31.48756277 28.32325182 35.05713587 28.32244873 38.6267395 C28.31875311 44.62409604 28.30377352 50.62133834 28.28125 56.61865234 C28.25240427 64.31502156 28.24202947 72.01129859 28.2375679 79.70771599 C28.23358509 86.32294418 28.22108124 92.93815236 28.20722103 99.55336618 C28.20312449 101.67995438 28.20019753 103.80654188 28.19742584 105.93313217 C28.19161509 109.89799591 28.17693357 113.86279964 28.16113281 117.82763672 C28.16001495 119.00700806 28.15889709 120.18637939 28.15774536 121.40148926 C28.15203522 122.48110931 28.14632507 123.56072937 28.14044189 124.67306519 C28.1359799 126.079512 28.1359799 126.079512 28.13142776 127.51437187 C28.0095696 129.81901493 27.65041102 131.79269327 27 134 C28.01977432 133.75846695 28.01977432 133.75846695 29.06015015 133.51205444 C32.42889693 132.92529599 35.61737855 132.842568 39.03759766 132.80712891 C39.72601242 132.79895142 40.41442719 132.79077393 41.123703 132.78234863 C43.38714755 132.75766219 45.65053055 132.74103031 47.9140625 132.7265625 C48.68904461 132.72123882 49.46402672 132.71591515 50.26249313 132.71043015 C54.357277 132.68378342 58.45203114 132.66437364 62.546875 132.64990234 C65.9361441 132.63651667 69.32481772 132.60856866 72.71386719 132.56787109 C76.81104447 132.51867965 80.90767841 132.49380009 85.0051384 132.48667526 C86.56572795 132.47994934 88.12630471 132.46469234 89.68672562 132.44078445 C91.86553202 132.40928089 94.04221857 132.4090708 96.22119141 132.41650391 C97.46075592 132.40841705 98.70032043 132.4003302 99.97744751 132.39199829 C103 133 103 133 104.90614319 135.39396667 C106.03671756 138.08747689 106.31579376 139.68489418 106.14453125 142.57421875 C106.07588867 143.82235352 106.07588867 143.82235352 106.00585938 145.09570312 C105.94205078 145.95099609 105.87824219 146.80628906 105.8125 147.6875 C105.76802734 148.55439453 105.72355469 149.42128906 105.67773438 150.31445312 C105.2735543 156.7264457 105.2735543 156.7264457 103 159 C101.1296978 159.24609566 101.1296978 159.24609566 98.81124878 159.24050903 C97.49451675 159.24463303 97.49451675 159.24463303 96.15118408 159.24884033 C94.7032547 159.2380545 94.7032547 159.2380545 93.22607422 159.22705078 C91.70407913 159.22748886 91.70407913 159.22748886 90.15133667 159.22793579 C86.78570101 159.22653852 83.42028466 159.2109586 80.0546875 159.1953125 C77.72584148 159.19158378 75.3969939 159.18873615 73.06814575 159.18673706 C66.92946057 159.17908949 60.79086957 159.15943134 54.65222168 159.1373291 C48.39185867 159.11689486 42.13148048 159.10774053 35.87109375 159.09765625 C23.58068772 159.07618652 11.29035168 159.04203703 -1 159 C-2.37947492 156.24105016 -2.12913134 154.02219185 -2.13371277 150.9332428 C-2.13797775 149.63904922 -2.14224274 148.34485565 -2.14663696 147.01144409 C-2.14628742 145.56890866 -2.14582587 144.12637325 -2.14526367 142.68383789 C-2.1482544 141.17118751 -2.15165673 139.65853789 -2.15544128 138.14588928 C-2.16429401 134.03023099 -2.16661992 129.91459348 -2.16725707 125.79892659 C-2.16820516 122.36686845 -2.17188227 118.93481519 -2.17542917 115.50275892 C-2.18357847 107.40784264 -2.18601296 99.31293749 -2.18530273 91.21801758 C-2.18470172 82.8587727 -2.19525714 74.49959231 -2.2110464 66.14036375 C-2.2241074 58.97090604 -2.22948724 51.80146944 -2.22884732 44.63199991 C-2.22859192 40.34672083 -2.23146623 36.06149903 -2.24202538 31.77623177 C-2.25168225 27.74697122 -2.2518022 23.71782301 -2.24450874 19.68855858 C-2.24345991 18.20787518 -2.24584343 16.72718488 -2.2518692 15.24651337 C-2.25954959 13.22893655 -2.25376293 11.21132173 -2.24723816 9.19374084 C-2.24778293 8.0634549 -2.24832769 6.93316896 -2.24888897 5.76863194 C-2 3 -2 3 0 0 Z " fill="#ECECF3" transform="translate(615,6)"/>
<path d="M0 0 C1.084021 0.00523682 2.16804199 0.01047363 3.28491211 0.01586914 C5.03964844 0.02070312 5.03964844 0.02070312 6.82983398 0.02563477 C8.67738281 0.03820313 8.67738281 0.03820313 10.56225586 0.05102539 C12.41560547 0.05779297 12.41560547 0.05779297 14.30639648 0.06469727 C17.37089703 0.07652931 20.43530307 0.09301366 23.49975586 0.11352539 C23.65350327 21.47915954 23.80154059 42.8448264 23.94271946 64.21054745 C24.00840061 74.13029483 24.07597323 84.05002269 24.14794922 93.96972656 C24.21065503 102.6124723 24.26986239 111.25523358 24.3248114 119.89803225 C24.35404886 124.4772659 24.38507696 129.05647207 24.42028999 133.63566399 C24.45333902 137.94061615 24.48173097 142.24557324 24.5064621 146.55058098 C24.51640323 148.13531684 24.52808479 149.72004282 24.54158592 151.30475235 C24.55968506 153.45890173 24.57167277 155.61299833 24.58204651 157.76719666 C24.59034265 158.97566726 24.59863878 160.18413786 24.60718632 161.42922878 C24.49975586 164.11352539 24.49975586 164.11352539 23.49975586 165.11352539 C19.36013303 165.36653778 15.2086959 165.29875088 11.06225586 165.30102539 C9.89114258 165.31327148 8.7200293 165.32551758 7.51342773 165.33813477 C6.39645508 165.34006836 5.27948242 165.34200195 4.12866211 165.34399414 C2.58287476 165.35015747 2.58287476 165.35015747 1.00585938 165.35644531 C-1.50024414 165.11352539 -1.50024414 165.11352539 -3.50024414 163.11352539 C-3.74913311 160.34020901 -3.74913311 160.34020901 -3.7474823 156.729599 C-3.74989672 156.06706023 -3.75231113 155.40452147 -3.75479871 154.72190577 C-3.7604553 152.49158831 -3.75175806 150.26155479 -3.74316406 148.03125 C-3.74423645 146.4365379 -3.74617449 144.84182619 -3.74891663 143.24711609 C-3.75377464 138.90842449 -3.7460977 134.56983532 -3.73596358 130.23115611 C-3.72719997 125.69923561 -3.72894019 121.16731848 -3.72932434 116.63539124 C-3.72838702 109.02481363 -3.71969335 101.41427582 -3.70605469 93.80371094 C-3.69032281 84.99228537 -3.68505674 76.18090341 -3.68579024 67.36946481 C-3.68639962 58.90764059 -3.68130277 50.44583064 -3.67299843 41.9840107 C-3.66945887 38.37596081 -3.66763422 34.76791597 -3.66710472 31.15986443 C-3.66610352 26.91558664 -3.66002527 22.67134577 -3.64993858 18.42708015 C-3.64700657 16.86493277 -3.64578962 15.30278113 -3.64636612 13.7406311 C-3.6468534 11.61720362 -3.64123507 9.49388107 -3.63395691 7.37046814 C-3.63228106 6.17934386 -3.63060522 4.98821959 -3.62887859 3.76100063 C-3.45376015 0.15682047 -3.45376015 0.15682047 0 0 Z " fill="#F4F4F7" transform="translate(169.500244140625,-0.113525390625)"/>
<path d="M0 0 C0.66 0.33 1.32 0.66 2 1 C3.24387796 6.64612433 3.31457753 12.38316875 2 18 C1.34 18.33 0.68 18.66 0 19 C-0.1938211 16.02111874 -0.38035102 13.04209754 -0.5625 10.0625 C-0.61857422 9.21236328 -0.67464844 8.36222656 -0.73242188 7.48632812 C-0.80493164 6.27299805 -0.80493164 6.27299805 -0.87890625 5.03515625 C-0.9260376 4.2862915 -0.97316895 3.53742676 -1.02172852 2.76586914 C-1 1 -1 1 0 0 Z " fill="#707097" transform="translate(844,145)"/>
<path d="M0 0 C0.66 0.33 1.32 0.66 2 1 C-1.96 4.96 -5.92 8.92 -10 13 C-10 8.41771462 -7.08388033 6.1816619 -4 3 C-1.625 1.0625 -1.625 1.0625 0 0 Z " fill="#56568F" transform="translate(235,49)"/>
<path d="M0 0 C0.66 0.33 1.32 0.66 2 1 C-2.29 5.29 -6.58 9.58 -11 14 C-11 9.40845608 -8.09282279 7.18698368 -5 4 C-3.3719908 2.61973133 -1.71956118 1.26438322 0 0 Z " fill="#5F5F8B" transform="translate(25,18)"/>
</svg>
